<svg width="1440" height="2600" viewBox="0 0 1440 2600" fill="none" xmlns="http://www.w3.org/2000/svg">
  <defs>
    <linearGradient id="bg" x1="0" y1="0" x2="1440" y2="2600" gradientUnits="userSpaceOnUse">
      <stop stop-color="#060A1E"/>
      <stop offset="0.55" stop-color="#0A1030"/>
      <stop offset="1" stop-color="#1A0B35"/>
    </linearGradient>
    <linearGradient id="cardGlow" x1="210" y1="210" x2="1230" y2="460" gradientUnits="userSpaceOnUse">
      <stop stop-color="#3C56FF" stop-opacity="0.45"/>
      <stop offset="0.55" stop-color="#34A0FF" stop-opacity="0.35"/>
      <stop offset="1" stop-color="#30DFC8" stop-opacity="0.4"/>
    </linearGradient>
    <linearGradient id="wallet" x1="190" y1="490" x2="1250" y2="760" gradientUnits="userSpaceOnUse">
      <stop stop-color="#3A57FF" stop-opacity="0.62"/>
      <stop offset="0.55" stop-color="#49C6FF" stop-opacity="0.52"/>
      <stop offset="1" stop-color="#44E8C2" stop-opacity="0.56"/>
    </linearGradient>
    <linearGradient id="offer" x1="190" y1="800" x2="1250" y2="880" gradientUnits="userSpaceOnUse">
      <stop stop-color="#62A0FF" stop-opacity="0.5"/>
      <stop offset="1" stop-color="#4EE6CC" stop-opacity="0.5"/>
    </linearGradient>
    <filter id="blur10" x="-100" y="-100" width="1800" height="2900" filterUnits="userSpaceOnUse" color-interpolation-filters="sRGB">
      <feGaussianBlur stdDeviation="10"/>
    </filter>
  </defs>

  <rect width="1440" height="2600" fill="url(#bg)"/>
  <circle cx="120" cy="90" r="170" fill="#4B6BFF" fill-opacity="0.28" filter="url(#blur10)"/>
  <circle cx="1330" cy="340" r="210" fill="#00D5C9" fill-opacity="0.18" filter="url(#blur10)"/>

  <g transform="translate(120,48)">
    <rect x="0" y="0" width="52" height="52" rx="14" fill="#1ED6FF"/>
    <text x="72" y="34" fill="#FFFFFF" font-family="GoogleSans, Arial" font-size="30" font-weight="700">SecurePay</text>
    <rect x="1086" y="6" width="114" height="40" rx="12" fill="#FFFFFF" fill-opacity="0.2"/>
    <text x="1120" y="32" fill="#FFFFFF" font-family="GoogleSans, Arial" font-size="18" font-weight="600">Scan</text>
  </g>

  <g transform="translate(120,128)">
    <rect x="0" y="0" width="1200" height="66" rx="16" fill="#FFFFFF" fill-opacity="0.09" stroke="#FFFFFF" stroke-opacity="0.2"/>
    <text x="26" y="41" fill="#CDD5F0" font-family="GoogleSans, Arial" font-size="20">Search name, mobile, or UPI ID</text>
  </g>

  <g transform="translate(120,220)">
    <rect x="0" y="0" width="1200" height="220" rx="20" fill="url(#cardGlow)" stroke="#FFFFFF" stroke-opacity="0.22"/>
    <text x="28" y="50" fill="#FFFFFF" font-family="GoogleSans, Arial" font-size="28" font-weight="700">Premium Security Layer Active</text>
    <text x="28" y="90" fill="#E5EDFF" font-family="GoogleSans, Arial" font-size="20">AI risk signals, device trust, and velocity checks are running before every debit.</text>
    <rect x="28" y="126" width="170" height="40" rx="20" fill="#FFFFFF" fill-opacity="0.12"/>
    <text x="53" y="152" fill="#ECF2FF" font-family="GoogleSans, Arial" font-size="16" font-weight="600">Latency 82ms</text>
    <rect x="214" y="126" width="210" height="40" rx="20" fill="#FFFFFF" fill-opacity="0.12"/>
    <text x="236" y="152" fill="#ECF2FF" font-family="GoogleSans, Arial" font-size="16" font-weight="600">NPCI Rail Healthy</text>
    <rect x="440" y="126" width="200" height="40" rx="20" fill="#FFFFFF" fill-opacity="0.12"/>
    <text x="466" y="152" fill="#ECF2FF" font-family="GoogleSans, Arial" font-size="16" font-weight="600">Auto Recovery On</text>
  </g>

  <g transform="translate(120,464)">
    <rect x="0" y="0" width="1200" height="250" rx="20" fill="url(#wallet)" stroke="#FFFFFF" stroke-opacity="0.22"/>
    <text x="28" y="48" fill="#D6DEFF" font-family="GoogleSans, Arial" font-size="20">SecurePay Wallet Balance</text>
    <text x="28" y="112" fill="#FFFFFF" font-family="GoogleSans, Arial" font-size="64" font-weight="700">INR 28,540.73</text>
    <text x="28" y="162" fill="#FFFFFF" font-family="GoogleSans, Arial" font-size="22">Linked Bank .... 2184</text>
    <text x="360" y="162" fill="#FFFFFF" font-family="GoogleSans, Arial" font-size="22">janar@securepay</text>
  </g>

  <g transform="translate(120,736)">
    <rect x="0" y="0" width="1200" height="72" rx="14" fill="url(#offer)" stroke="#FFFFFF" stroke-opacity="0.22"/>
    <text x="24" y="45" fill="#F0F5FF" font-family="GoogleSans, Arial" font-size="22" font-weight="600">Cashback up to 20% on first recharge and UPI transfer.</text>
    <rect x="1088" y="16" width="92" height="40" rx="10" fill="#FFFFFF" fill-opacity="0.2"/>
    <text x="1118" y="42" fill="#FFFFFF" font-family="GoogleSans, Arial" font-size="18" font-weight="600">View</text>
  </g>

  <g transform="translate(120,832)">
    <rect x="0" y="0" width="1200" height="126" rx="16" fill="#FFFFFF" fill-opacity="0.08" stroke="#FFFFFF" stroke-opacity="0.18"/>
    <text x="22" y="34" fill="#FFFFFF" font-family="GoogleSans, Arial" font-size="24" font-weight="700">Trust Metrics</text>
    <rect x="22" y="50" width="360" height="58" rx="12" fill="#FFFFFF" fill-opacity="0.08"/>
    <text x="40" y="86" fill="#FFFFFF" font-family="GoogleSans, Arial" font-size="20" font-weight="700">Trust Score 98/100</text>
    <rect x="420" y="50" width="360" height="58" rx="12" fill="#FFFFFF" fill-opacity="0.08"/>
    <text x="440" y="86" fill="#FFFFFF" font-family="GoogleSans, Arial" font-size="20" font-weight="700">Uptime 99.99%</text>
    <rect x="818" y="50" width="360" height="58" rx="12" fill="#FFFFFF" fill-opacity="0.08"/>
    <text x="836" y="86" fill="#FFFFFF" font-family="GoogleSans, Arial" font-size="20" font-weight="700">Fraud Block 24x7</text>
  </g>

  <g transform="translate(120,978)">
    <rect x="0" y="0" width="1200" height="338" rx="16" fill="#FFFFFF" fill-opacity="0.08" stroke="#FFFFFF" stroke-opacity="0.18"/>
    <text x="22" y="36" fill="#FFFFFF" font-family="GoogleSans, Arial" font-size="24" font-weight="700">Quick Actions</text>

    <g fill="#FFFFFF" fill-opacity="0.1" stroke="#FFFFFF" stroke-opacity="0.16">
      <rect x="22" y="56" width="270" height="120" rx="14"/>
      <rect x="314" y="56" width="270" height="120" rx="14"/>
      <rect x="606" y="56" width="270" height="120" rx="14"/>
      <rect x="898" y="56" width="270" height="120" rx="14"/>
      <rect x="22" y="194" width="270" height="120" rx="14"/>
      <rect x="314" y="194" width="270" height="120" rx="14"/>
      <rect x="606" y="194" width="270" height="120" rx="14"/>
      <rect x="898" y="194" width="270" height="120" rx="14"/>
    </g>

    <g fill="#FFFFFF" font-family="GoogleSans, Arial" font-size="18" font-weight="600">
      <text x="80" y="126">Scan &amp; Pay</text>
      <text x="372" y="126">Send Money</text>
      <text x="650" y="126">Bank Transfer</text>
      <text x="944" y="126">Wallet Top-Up</text>
      <text x="102" y="264">Bill Pay</text>
      <text x="398" y="264">Recharge</text>
      <text x="690" y="264">Cashback</text>
      <text x="992" y="264">Rewards</text>
    </g>
  </g>

  <g transform="translate(120,1340)">
    <rect x="0" y="0" width="1200" height="170" rx="16" fill="#FFFFFF" fill-opacity="0.08" stroke="#FFFFFF" stroke-opacity="0.18"/>
    <text x="22" y="36" fill="#FFFFFF" font-family="GoogleSans, Arial" font-size="24" font-weight="700">Service Pills</text>
    <rect x="22" y="56" width="210" height="42" rx="21" fill="#FFFFFF" fill-opacity="0.12"/>
    <rect x="244" y="56" width="210" height="42" rx="21" fill="#FFFFFF" fill-opacity="0.12"/>
    <rect x="466" y="56" width="260" height="42" rx="21" fill="#FFFFFF" fill-opacity="0.12"/>
    <rect x="738" y="56" width="250" height="42" rx="21" fill="#FFFFFF" fill-opacity="0.12"/>
    <text x="54" y="83" fill="#FFFFFF" font-family="GoogleSans, Arial" font-size="16">Offers Zone</text>
    <text x="272" y="83" fill="#FFFFFF" font-family="GoogleSans, Arial" font-size="16">UPI Lite Active</text>
    <text x="492" y="83" fill="#FFFFFF" font-family="GoogleSans, Arial" font-size="16">2 AutoPay Mandates</text>
    <text x="768" y="83" fill="#FFFFFF" font-family="GoogleSans, Arial" font-size="16">Fraud Protection On</text>
  </g>

  <g transform="translate(120,1532)">
    <rect x="0" y="0" width="1200" height="220" rx="16" fill="#FFFFFF" fill-opacity="0.08" stroke="#FFFFFF" stroke-opacity="0.18"/>
    <text x="22" y="36" fill="#FFFFFF" font-family="GoogleSans, Arial" font-size="24" font-weight="700">Security &amp; Trust Center</text>
    <text x="22" y="76" fill="#E2E9FF" font-family="GoogleSans, Arial" font-size="19">End-to-end encrypted UPI with real-time risk checks on every transaction.</text>
    <rect x="22" y="100" width="170" height="38" rx="19" fill="#FFFFFF" fill-opacity="0.08"/>
    <rect x="204" y="100" width="188" height="38" rx="19" fill="#FFFFFF" fill-opacity="0.08"/>
    <rect x="404" y="100" width="180" height="38" rx="19" fill="#FFFFFF" fill-opacity="0.08"/>
    <rect x="596" y="100" width="190" height="38" rx="19" fill="#FFFFFF" fill-opacity="0.08"/>
    <text x="52" y="124" fill="#ECF2FF" font-family="GoogleSans, Arial" font-size="15">RBI Aligned</text>
    <text x="232" y="124" fill="#ECF2FF" font-family="GoogleSans, Arial" font-size="15">Device Binding</text>
    <text x="432" y="124" fill="#ECF2FF" font-family="GoogleSans, Arial" font-size="15">Biometric Ready</text>
    <text x="624" y="124" fill="#ECF2FF" font-family="GoogleSans, Arial" font-size="15">UPI Collect Guard</text>
  </g>

  <g transform="translate(120,1776)">
    <rect x="0" y="0" width="1200" height="160" rx="16" fill="#FFFFFF" fill-opacity="0.08" stroke="#FFFFFF" stroke-opacity="0.18"/>
    <text x="22" y="36" fill="#FFFFFF" font-family="GoogleSans, Arial" font-size="24" font-weight="700">Pay Contacts</text>
    <text x="1110" y="36" fill="#C5D1F7" font-family="GoogleSans, Arial" font-size="18">See all</text>
    <circle cx="70" cy="95" r="28" fill="#4B7CFF" fill-opacity="0.3"/>
    <circle cx="170" cy="95" r="28" fill="#00A884" fill-opacity="0.3"/>
    <circle cx="270" cy="95" r="28" fill="#8A5BFF" fill-opacity="0.3"/>
    <circle cx="370" cy="95" r="28" fill="#FF8A3D" fill-opacity="0.3"/>
    <circle cx="470" cy="95" r="28" fill="#2CB3B0" fill-opacity="0.3"/>
    <circle cx="570" cy="95" r="28" fill="#EF5350" fill-opacity="0.3"/>
    <text x="50" y="139" fill="#FFFFFF" font-family="GoogleSans, Arial" font-size="15">Aarav</text>
    <text x="153" y="139" fill="#FFFFFF" font-family="GoogleSans, Arial" font-size="15">Neha</text>
    <text x="250" y="139" fill="#FFFFFF" font-family="GoogleSans, Arial" font-size="15">Rahul</text>
    <text x="351" y="139" fill="#FFFFFF" font-family="GoogleSans, Arial" font-size="15">Priya</text>
    <text x="453" y="139" fill="#FFFFFF" font-family="GoogleSans, Arial" font-size="15">Kiran</text>
    <text x="553" y="139" fill="#FFFFFF" font-family="GoogleSans, Arial" font-size="15">Meera</text>
  </g>

  <g transform="translate(120,1956)">
    <rect x="0" y="0" width="1200" height="260" rx="16" fill="#FFFFFF" fill-opacity="0.08" stroke="#FFFFFF" stroke-opacity="0.18"/>
    <text x="22" y="36" fill="#FFFFFF" font-family="GoogleSans, Arial" font-size="24" font-weight="700">Bills &amp; Recharges + Rewards</text>
    <rect x="22" y="56" width="560" height="178" rx="14" fill="#FFFFFF" fill-opacity="0.06"/>
    <rect x="602" y="56" width="576" height="178" rx="14" fill="#FFE6AA" fill-opacity="0.2"/>
    <text x="44" y="92" fill="#FFFFFF" font-family="GoogleSans, Arial" font-size="18">Electricity  Mobile  DTH  Water  Gas  FASTag</text>
    <text x="624" y="94" fill="#FFFFFF" font-family="GoogleSans, Arial" font-size="22" font-weight="700">Scratch cards waiting</text>
    <text x="624" y="124" fill="#E9EEFF" font-family="GoogleSans, Arial" font-size="18">Complete 1 more UPI payment to unlock rewards</text>
  </g>

  <g transform="translate(120,2238)">
    <rect x="0" y="0" width="1200" height="260" rx="16" fill="#FFFFFF" fill-opacity="0.08" stroke="#FFFFFF" stroke-opacity="0.18"/>
    <text x="22" y="36" fill="#FFFFFF" font-family="GoogleSans, Arial" font-size="24" font-weight="700">Recent Transactions</text>
    <text x="1080" y="36" fill="#C5D1F7" font-family="GoogleSans, Arial" font-size="18">Passbook</text>
    <rect x="22" y="56" width="1156" height="46" rx="10" fill="#FFFFFF" fill-opacity="0.08"/>
    <rect x="22" y="110" width="1156" height="46" rx="10" fill="#FFFFFF" fill-opacity="0.08"/>
    <rect x="22" y="164" width="1156" height="46" rx="10" fill="#FFFFFF" fill-opacity="0.08"/>
    <text x="42" y="86" fill="#FFFFFF" font-family="GoogleSans, Arial" font-size="16">Paid to Zomato   -INR 420   Success</text>
    <text x="42" y="140" fill="#FFFFFF" font-family="GoogleSans, Arial" font-size="16">Received from Aarav   +INR 1200   Success</text>
    <text x="42" y="194" fill="#FFFFFF" font-family="GoogleSans, Arial" font-size="16">Electricity Bill   -INR 1850   Success</text>
  </g>

  <g transform="translate(260,2522)">
    <rect x="0" y="0" width="920" height="56" rx="18" fill="#FFFFFF" fill-opacity="0.1" stroke="#FFFFFF" stroke-opacity="0.2"/>
    <text x="74" y="34" fill="#FFFFFF" font-family="GoogleSans, Arial" font-size="16">Home</text>
    <text x="248" y="34" fill="#B8C6EA" font-family="GoogleSans, Arial" font-size="16">Balance</text>
    <text x="426" y="34" fill="#B8C6EA" font-family="GoogleSans, Arial" font-size="16">Scan</text>
    <text x="604" y="34" fill="#B8C6EA" font-family="GoogleSans, Arial" font-size="16">Help</text>
    <text x="778" y="34" fill="#B8C6EA" font-family="GoogleSans, Arial" font-size="16">Profile</text>
  </g>
</svg>
